{
    "asset" : {
        "generator" : "Khronos glTF Blender I/O v1.1.46",
        "version" : "2.0"
    },
    "scene" : 0,
    "scenes" : [
        {
            "name" : "Scene",
            "nodes" : [
                0,
                1
            ]
        }
    ],
    "nodes" : [
        {
            "mesh" : 0,
            "name" : "Frame01.002",
            "scale" : [
                1.0499999523162842,
                1.0499999523162842,
                1.0499999523162842
            ],
            "translation" : [
                -0.7579642534255981,
                0.030710188671946526,
                -0.8549914360046387
            ]
        },
        {
            "name" : "Frame Profile"
        }
    ],
    "materials" : [
        {
            "doubleSided" : true,
            "emissiveFactor" : [
                0,
                0,
                0
            ],
            "name" : "Canvas painting03",
            "pbrMetallicRoughness" : {
                "metallicFactor" : 0,
                "roughnessFactor" : 0.5
            }
        }
    ],
    "meshes" : [
        {
            "name" : "Plane.004",
            "primitives" : [
                {
                    "attributes" : {
                        "POSITION" : 0,
                        "NORMAL" : 1,
                        "TEXCOORD_0" : 2
                    },
                    "indices" : 3,
                    "material" : 0
                }
            ]
        }
    ],
    "accessors" : [
        {
            "bufferView" : 0,
            "componentType" : 5126,
            "count" : 1884,
            "max" : [
                0.5501468181610107,
                0.030352191999554634,
                0.6987861394882202
            ],
            "min" : [
                -0.5501468181610107,
                -0.055710189044475555,
                -0.6987861394882202
            ],
            "type" : "VEC3"
        },
        {
            "bufferView" : 1,
            "componentType" : 5126,
            "count" : 1884,
            "type" : "VEC3"
        },
        {
            "bufferView" : 2,
            "componentType" : 5126,
            "count" : 1884,
            "type" : "VEC2"
        },
        {
            "bufferView" : 3,
            "componentType" : 5123,
            "count" : 2910,
            "type" : "SCALAR"
        }
    ],
    "bufferViews" : [
        {
            "buffer" : 0,
            "byteLength" : 22608,
            "byteOffset" : 0
        },
        {
            "buffer" : 0,
            "byteLength" : 22608,
            "byteOffset" : 22608
        },
        {
            "buffer" : 0,
            "byteLength" : 15072,
            "byteOffset" : 45216
        },
        {
            "buffer" : 0,
            "byteLength" : 5820,
            "byteOffset" : 60288
        }
    ],
    "buffers" : [
        {
            "byteLength" : 66108,
            "uri" : "data:application/octet-stream;base64,"
        }
    ]
}
